ffmpeg version 3.4.8-0ubuntu0.2 Copyright (c) 2000-2020 the FFmpeg developers
  built with gcc 7 (Ubuntu 7.5.0-3ubuntu1~18.04)
  configuration: --prefix=/usr --extra-version=0ubuntu0.2 --toolchain=hardened --libdir=/usr/lib/x86_64-linux-gnu --incdir=/usr/include/x86_64-linux-gnu --enable-gpl --disable-stripping --enable-avresample --enable-avisynth --enable-gnutls --enable-ladspa --enable-libass --enable-libbluray --enable-libbs2b --enable-libcaca --enable-libcdio --enable-libflite --enable-libfontconfig --enable-libfreetype --enable-libfribidi --enable-libgme --enable-libgsm --enable-libmp3lame --enable-libmysofa --enable-libopenjpeg --enable-libopenmpt --enable-libopus --enable-libpulse --enable-librubberband --enable-librsvg --enable-libshine --enable-libsnappy --enable-libsoxr --enable-libspeex --enable-libssh --enable-libtheora --enable-libtwolame --enable-libvorbis --enable-libvpx --enable-libwavpack --enable-libwebp --enable-libx265 --enable-libxml2 --enable-libxvid --enable-libzmq --enable-libzvbi --enable-omx --enable-openal --enable-opengl --enable-sdl2 --enable-libdc1394 --enable-libdrm --enable-libiec61883 --enable-chromaprint --enable-frei0r --enable-libopencv --enable-libx264 --enable-shared
  libavutil      55. 78.100 / 55. 78.100
  libavcodec     57.107.100 / 57.107.100
  libavformat    57. 83.100 / 57. 83.100
  libavdevice    57. 10.100 / 57. 10.100
  libavfilter     6.107.100 /  6.107.100
  libavresample   3.  7.  0 /  3.  7.  0
  libswscale      4.  8.100 /  4.  8.100
  libswresample   2.  9.100 /  2.  9.100
  libpostproc    54.  7.100 / 54.  7.100
[rawvideo @ 0x55da56688a20] Estimating duration from bitrate, this may be inaccurate
Input #0, rawvideo, from '../../SVC-Encoder-20220109T061506Z-001/SVC-Encoder/Dataset/RollerCoaster/ERP_8x8/tile_yuv/Tile_54_480x240.yuv':
  Duration: 00:00:10.00, start: 0.000000, bitrate: 41472 kb/s
    Stream #0:0: Video: rawvideo (I420 / 0x30323449), yuv420p, 480x240, 41472 kb/s, 30 tbr, 30 tbn, 30 tbc
Stream mapping:
  Stream #0:0 -> #0:0 (rawvideo (native) -> h264 (libx264))
Press [q] to stop, [?] for help
[libx264 @ 0x55da56695c60] using cpu capabilities: MMX2 SSE2Fast LZCNT SSSE3 SSE4.2 AVX
[libx264 @ 0x55da56695c60] profile High, level 2.1
Output #0, rawvideo, to 'RollerCoaster_Tile_54_480x240_x264_QP_24.h264':
  Metadata:
    encoder         : Lavf57.83.100
    Stream #0:0: Video: h264 (libx264), yuv420p, 480x240, q=-1--1, 30 fps, 30 tbn, 30 tbc
    Metadata:
      encoder         : Lavc57.107.100 libx264
    Side data:
      cpb: bitrate max/min/avg: 0/0/0 buffer size: 0 vbv_delay: -1
frame=  195 fps=0.0 q=30.0 PSNR=Y:nan U:nan V:nan *:nan size=      56kB time=00:00:05.06 bitrate=  90.1kbits/s speed=10.1x    frame=  300 fps=0.0 q=30.0 LPSNR=Y:inf U:inf V:inf *:inf size=     100kB time=00:00:09.93 bitrate=  82.6kbits/s speed=12.7x    
video:100kB audio:0kB subtitle:0kB other streams:0kB global headers:0kB muxing overhead: 0.000000%
[libx264 @ 0x55da56695c60] frame I:2     Avg QP:21.52  size:  9917  PSNR Mean Y:48.67 U:50.77 V:49.61 Avg:49.11 Global:49.09
[libx264 @ 0x55da56695c60] frame P:76    Avg QP:22.94  size:   739  PSNR Mean Y:46.37 U:49.85 V:49.08 Avg:47.17 Global:47.14
[libx264 @ 0x55da56695c60] frame B:222   Avg QP:29.50  size:   120  PSNR Mean Y:46.14 U:49.70 V:48.91 Avg:46.96 Global:46.93
[libx264 @ 0x55da56695c60] consecutive B-frames:  1.0%  0.7%  1.0% 97.3%
[libx264 @ 0x55da56695c60] mb I  I16..4: 35.3% 49.4% 15.2%
[libx264 @ 0x55da56695c60] mb P  I16..4:  1.8%  0.8%  0.0%  P16..4: 33.1%  9.0%  3.0%  0.0%  0.0%    skip:52.3%
[libx264 @ 0x55da56695c60] mb B  I16..4:  0.0%  0.0%  0.0%  B16..8: 22.7%  0.4%  0.0%  direct: 0.0%  skip:76.9%  L0:38.5% L1:61.3% BI: 0.3%
[libx264 @ 0x55da56695c60] 8x8 transform intra:39.2% inter:76.4%
[libx264 @ 0x55da56695c60] coded y,uvDC,uvAC intra: 29.6% 49.9% 18.1% inter: 2.9% 4.2% 0.0%
[libx264 @ 0x55da56695c60] i16 v,h,dc,p: 37% 40% 17%  6%
[libx264 @ 0x55da56695c60] i8 v,h,dc,ddl,ddr,vr,hd,vl,hu:  6% 19% 41%  3%  5%  2%  6%  2% 16%
[libx264 @ 0x55da56695c60] i4 v,h,dc,ddl,ddr,vr,hd,vl,hu:  8% 34%  9%  6%  9%  4%  9%  3% 17%
[libx264 @ 0x55da56695c60] i8c dc,h,v,p: 59% 26% 10%  6%
[libx264 @ 0x55da56695c60] Weighted P-Frames: Y:1.3% UV:0.0%
[libx264 @ 0x55da56695c60] ref P L0: 63.1% 14.0% 17.1%  5.7%  0.0%
[libx264 @ 0x55da56695c60] ref B L0: 76.0% 20.4%  3.5%
[libx264 @ 0x55da56695c60] ref B L1: 86.2% 13.8%
[libx264 @ 0x55da56695c60] PSNR Mean Y:46.218 U:49.744 V:48.960 Avg:47.027 Global:46.994 kb/s:82.06
